<svg width="121" height="21" viewBox="0 0 121 21" fill="none" xmlns="http://www.w3.org/2000/svg">
<path d="M4.64 16.448H3.848C2.616 16.448 1.68 16.112 1.04 15.44C0.416 14.768 0.104 13.8 0.104 12.536V8.672C0.104 7.408 0.448 6.44 1.136 5.768C1.824 5.096 2.8 4.76 4.064 4.76H9.608C9.96 4.76 10.136 4.928 10.136 5.264V17.096C10.136 18.344 9.784 19.304 9.08 19.976C8.392 20.648 7.424 20.984 6.176 20.984H1.568C1.376 20.984 1.24 20.944 1.16 20.864C1.096 20.8 1.064 20.68 1.064 20.504V18.848C1.064 18.512 1.232 18.344 1.568 18.344H5.672C6.184 18.344 6.544 18.232 6.752 18.008C6.976 17.8 7.088 17.448 7.088 16.952V15.128H6.992C6.816 15.56 6.504 15.888 6.056 16.112C5.608 16.336 5.136 16.448 4.64 16.448ZM7.088 11.984V7.664C7.088 7.488 6.992 7.4 6.8 7.4H4.544C4.032 7.4 3.672 7.512 3.464 7.736C3.256 7.944 3.152 8.304 3.152 8.816V12.392C3.152 12.904 3.256 13.264 3.464 13.472C3.672 13.68 4.032 13.784 4.544 13.784H5.432C6.536 13.784 7.088 13.184 7.088 11.984ZM17.0613 17H16.4853C15.2213 17 14.2453 16.664 13.5573 15.992C12.8693 15.32 12.5253 14.352 12.5253 13.088V8.672C12.5253 7.408 12.8693 6.44 13.5573 5.768C14.2453 5.096 15.2213 4.76 16.4853 4.76H22.0293C22.3813 4.76 22.5573 4.928 22.5573 5.264V16.496C22.5573 16.832 22.3813 17 22.0293 17H20.0133C19.6773 17 19.5093 16.832 19.5093 16.496V15.704H19.4133C19.2373 16.136 18.9253 16.464 18.4773 16.688C18.0293 16.896 17.5573 17 17.0613 17ZM19.5093 12.536V7.664C19.5093 7.488 19.4133 7.4 19.2213 7.4H16.9653C16.4533 7.4 16.0933 7.512 15.8853 7.736C15.6773 7.944 15.5733 8.304 15.5733 8.816V12.944C15.5733 13.456 15.6773 13.824 15.8853 14.048C16.0933 14.256 16.4533 14.36 16.9653 14.36H17.8533C18.9573 14.36 19.5093 13.752 19.5093 12.536ZM28.4992 14.36H30.9472C31.4592 14.36 31.8192 14.256 32.0272 14.048C32.2512 13.824 32.3632 13.456 32.3632 12.944V8.768C32.3632 8.256 32.2512 7.896 32.0272 7.688C31.8192 7.464 31.4592 7.352 30.9472 7.352H29.8912C28.7872 7.352 28.2352 7.96 28.2352 9.176V14.096C28.2352 14.272 28.3232 14.36 28.4992 14.36ZM25.1872 16.496V0.631999C25.1872 0.296 25.3552 0.128 25.6912 0.128H27.7312C28.0672 0.128 28.2352 0.296 28.2352 0.631999V6.032H28.3312C28.5072 5.6 28.8192 5.272 29.2672 5.048C29.7152 4.824 30.1872 4.712 30.6832 4.712H31.4512C32.7152 4.712 33.6912 5.048 34.3792 5.72C35.0672 6.392 35.4112 7.36 35.4112 8.624V13.088C35.4112 14.352 35.0672 15.32 34.3792 15.992C33.6912 16.664 32.7152 17 31.4512 17H25.6912C25.3552 17 25.1872 16.832 25.1872 16.496ZM40.364 17H38.324C37.988 17 37.82 16.832 37.82 16.496V5.264C37.82 4.928 37.988 4.76 38.324 4.76H40.364C40.7 4.76 40.868 4.928 40.868 5.264V6.08H40.964C41.14 5.648 41.452 5.32 41.9 5.096C42.348 4.872 42.82 4.76 43.316 4.76H44.18C44.5 4.76 44.66 4.928 44.66 5.264V6.92C44.66 7.112 44.62 7.248 44.54 7.328C44.476 7.392 44.356 7.416 44.18 7.4H42.524C41.42 7.4 40.868 8.024 40.868 9.272V16.496C40.868 16.832 40.7 17 40.364 17ZM46.3072 2.696V0.607999C46.3072 0.288 46.4672 0.128 46.7872 0.128H48.8752C49.1952 0.128 49.3552 0.28 49.3552 0.584V2.696C49.3552 3.016 49.1952 3.176 48.8752 3.176H46.7872C46.4672 3.176 46.3072 3.016 46.3072 2.696ZM46.3072 16.496V5.264C46.3072 4.928 46.4672 4.76 46.7872 4.76H48.8512C49.1872 4.76 49.3552 4.928 49.3552 5.264V16.496C49.3552 16.704 49.3152 16.84 49.2352 16.904C49.1712 16.968 49.0512 17 48.8752 17H46.8112C46.4752 17 46.3072 16.832 46.3072 16.496ZM61.1409 17H55.8369C54.5729 17 53.5969 16.664 52.9089 15.992C52.2209 15.32 51.8769 14.352 51.8769 13.088V8.672C51.8769 7.408 52.2209 6.44 52.9089 5.768C53.5969 5.096 54.5729 4.76 55.8369 4.76H57.7329C58.9969 4.76 59.9729 5.096 60.6609 5.768C61.3489 6.44 61.6929 7.408 61.6929 8.672V11.72C61.6929 12.056 61.5249 12.224 61.1889 12.224H55.1649C54.9729 12.224 54.8769 12.312 54.8769 12.488V13.016C54.8769 13.512 54.9809 13.872 55.1889 14.096C55.4129 14.304 55.7809 14.408 56.2929 14.408H61.1409C61.4769 14.408 61.6449 14.584 61.6449 14.936V16.52C61.6449 16.696 61.6049 16.824 61.5249 16.904C61.4609 16.968 61.3329 17 61.1409 17ZM55.1649 10.184H58.4289C58.6049 10.184 58.6929 10.096 58.6929 9.92V8.768C58.6929 8.256 58.5889 7.896 58.3809 7.688C58.1729 7.48 57.8129 7.376 57.3009 7.376H56.2929C55.7809 7.376 55.4209 7.48 55.2129 7.688C55.0049 7.896 54.9009 8.256 54.9009 8.768V9.92C54.9009 10.096 54.9889 10.184 55.1649 10.184ZM66.6403 17H64.6003C64.2643 17 64.0963 16.832 64.0963 16.496V0.631999C64.0963 0.296 64.2643 0.128 64.6003 0.128H66.6403C66.9763 0.128 67.1443 0.296 67.1443 0.631999V16.496C67.1443 16.832 66.9763 17 66.6403 17ZM69.1379 5.864V3.896C69.1379 3.624 69.2579 3.416 69.4979 3.272L71.6819 1.904C72.0499 1.68 72.3619 1.568 72.6179 1.568H74.5379C74.8739 1.568 75.0419 1.736 75.0419 2.072V16.496C75.0419 16.688 75.0019 16.824 74.9219 16.904C74.8579 16.968 74.7379 17 74.5619 17H72.4979C72.1619 17 71.9939 16.832 71.9939 16.496V4.808L69.6419 6.152C69.3059 6.296 69.1379 6.2 69.1379 5.864ZM77.1536 5.864V3.896C77.1536 3.624 77.2736 3.416 77.5136 3.272L79.6976 1.904C80.0656 1.68 80.3776 1.568 80.6336 1.568H82.5536C82.8896 1.568 83.0576 1.736 83.0576 2.072V16.496C83.0576 16.688 83.0176 16.824 82.9376 16.904C82.8736 16.968 82.7536 17 82.5776 17H80.5136C80.1776 17 80.0096 16.832 80.0096 16.496V4.808L77.6576 6.152C77.3216 6.296 77.1536 6.2 77.1536 5.864ZM92.2492 11.552V4.136L88.3612 11.552H92.2492ZM94.6252 17H92.7532C92.4172 17 92.2492 16.832 92.2492 16.496V14.192H86.2972C86.0252 14.192 85.8092 14.112 85.6492 13.952C85.4892 13.792 85.4092 13.576 85.4092 13.304V12.368C85.4092 11.888 85.4892 11.496 85.6492 11.192L90.4252 2.312C90.5852 2.024 90.7292 1.832 90.8572 1.736C91.0012 1.624 91.2092 1.568 91.4812 1.568H94.1932C94.4652 1.568 94.6812 1.648 94.8412 1.808C95.0172 1.968 95.1052 2.184 95.1052 2.456V11.552H96.8332C97.1532 11.552 97.3132 11.712 97.3132 12.032V13.64C97.3132 14.008 97.1532 14.192 96.8332 14.192H95.1052V16.496C95.1052 16.688 95.0652 16.824 94.9852 16.904C94.9212 16.968 94.8012 17 94.6252 17ZM105.234 11.552V4.136L101.346 11.552H105.234ZM107.61 17H105.738C105.402 17 105.234 16.832 105.234 16.496V14.192H99.2816C99.0096 14.192 98.7936 14.112 98.6336 13.952C98.4736 13.792 98.3936 13.576 98.3936 13.304V12.368C98.3936 11.888 98.4736 11.496 98.6336 11.192L103.41 2.312C103.57 2.024 103.714 1.832 103.842 1.736C103.986 1.624 104.194 1.568 104.466 1.568H107.178C107.45 1.568 107.666 1.648 107.826 1.808C108.002 1.968 108.09 2.184 108.09 2.456V11.552H109.818C110.138 11.552 110.298 11.712 110.298 12.032V13.64C110.298 14.008 110.138 14.192 109.818 14.192H108.09V16.496C108.09 16.688 108.05 16.824 107.97 16.904C107.906 16.968 107.786 17 107.61 17ZM114.642 17H112.386C112.242 17 112.138 16.96 112.074 16.88C112.026 16.784 112.042 16.656 112.122 16.496L117.186 4.352H111.546C111.21 4.352 111.042 4.184 111.042 3.848V2.072C111.042 1.736 111.21 1.568 111.546 1.568H119.946C120.282 1.568 120.45 1.736 120.45 2.072V4.088C120.45 4.408 120.338 4.84 120.114 5.384L115.458 16.544C115.33 16.848 115.058 17 114.642 17Z" fill="#DDE3F0"/>
</svg>
